<?xml version="1.0" standalone="no"?>
<!DOCTYPE svg PUBLIC "-//W3C//DTD SVG 20010904//EN"
 "http://www.w3.org/TR/2001/REC-SVG-20010904/DTD/svg10.dtd">
<svg version="1.0" xmlns="http://www.w3.org/2000/svg"
 width="512.000000pt" height="512.000000pt" viewBox="0 0 512.000000 512.000000"
 preserveAspectRatio="xMidYMid meet">

<g transform="translate(0.000000,512.000000) scale(0.100000,-0.100000)"
fill="#000000" stroke="none">
<path d="M2185 4841 c-419 -77 -774 -284 -1051 -614 -135 -160 -307 -438 -286
-459 9 -9 60 -5 199 15 269 38 288 39 393 27 201 -23 512 -154 820 -345 296
-184 448 -241 676 -252 322 -16 595 94 834 336 85 85 220 260 220 283 0 3
-145 8 -322 12 -459 10 -616 26 -860 87 -161 40 -526 164 -515 175 2 2 118
-12 258 -31 489 -66 602 -76 889 -82 281 -6 658 8 797 29 89 13 123 37 123 88
0 32 -37 80 -62 80 -7 0 -67 -7 -133 -15 -66 -8 -165 -15 -220 -15 l-100 0
-90 91 c-303 306 -635 499 -997 580 -136 30 -434 36 -573 10z"/>
<path d="M4436 3468 c-8 -13 -40 -87 -70 -166 -64 -165 -124 -287 -171 -352
-46 -63 -193 -203 -290 -276 -131 -99 -195 -139 -398 -250 -105 -58 -230 -131
-277 -162 -324 -214 -513 -615 -472 -999 7 -60 24 -151 38 -203 25 -92 97
-267 129 -317 l17 -25 37 63 c279 475 352 589 480 749 121 152 334 357 531
510 l45 35 -35 -47 c-19 -26 -107 -140 -194 -253 -332 -431 -460 -628 -665
-1020 -127 -243 -191 -384 -191 -419 0 -38 37 -76 74 -76 49 0 70 22 109 117
21 48 63 137 95 198 l58 109 136 38 c639 174 1082 533 1277 1033 178 456 153
966 -72 1438 -48 101 -162 297 -172 297 -3 0 -11 -10 -19 -22z"/>
<path d="M325 3365 c-31 -30 -32 -63 -2 -103 69 -96 169 -244 199 -295 l35
-57 -29 -98 c-118 -397 -121 -845 -7 -1185 185 -555 686 -977 1300 -1096 189
-36 549 -54 575 -29 9 10 -12 40 -121 178 -185 233 -237 331 -279 535 -37 178
-46 305 -46 651 0 383 -8 455 -63 604 -132 351 -410 595 -782 686 -101 24
-330 52 -341 41 -3 -3 52 -108 124 -234 259 -456 356 -681 426 -998 30 -131
68 -354 64 -367 -2 -5 -32 62 -67 149 -266 655 -413 944 -705 1387 -138 208
-180 256 -225 256 -21 0 -41 -9 -56 -25z"/>
</g>
</svg>
